<svg xmlns="http://www.w3.org/2000/svg" xmlns:xlink="http://www.w3.org/1999/xlink" width="510" height="510" viewBox="0 0 510 510">
  <defs>
    <clipPath id="clip-More">
      <rect width="510" height="510"/>
    </clipPath>
  </defs>
  <g id="More" clip-path="url(#clip-More)">
    <path id="联合_1" data-name="联合 1" d="M196.313,291.16A39.843,39.843,0,1,1,236.16,331,39.842,39.842,0,0,1,196.313,291.16Zm-215.156,0A39.843,39.843,0,1,1,21,331,39.842,39.842,0,0,1-18.843,291.16Zm-215.157,0a39.842,39.842,0,0,1,39.848-39.846,39.841,39.841,0,0,1,39.839,39.846A39.84,39.84,0,0,1-194.152,331,39.842,39.842,0,0,1-234,291.16ZM196.313,76a39.843,39.843,0,1,1,39.847,39.84A39.843,39.843,0,0,1,196.313,76ZM-18.843,76A39.843,39.843,0,1,1,21,115.843,39.842,39.842,0,0,1-18.843,76ZM-234,76a39.843,39.843,0,0,1,39.848-39.846A39.841,39.841,0,0,1-154.313,76a39.84,39.84,0,0,1-39.839,39.84A39.841,39.841,0,0,1-234,76ZM196.313-139.154A39.842,39.842,0,0,1,236.16-179,39.841,39.841,0,0,1,276-139.154a39.839,39.839,0,0,1-39.84,39.84A39.841,39.841,0,0,1,196.313-139.154Zm-215.156,0A39.842,39.842,0,0,1,21-179a39.841,39.841,0,0,1,39.84,39.846A39.839,39.839,0,0,1,21-99.313,39.841,39.841,0,0,1-18.843-139.154Zm-215.157,0A39.842,39.842,0,0,1-194.152-179a39.841,39.841,0,0,1,39.839,39.846,39.839,39.839,0,0,1-39.839,39.84A39.841,39.841,0,0,1-234-139.154Z" transform="translate(234 179)" fill="#f2f2f2"/>
  </g>
</svg>
